<svg xmlns="http://www.w3.org/2000/svg" id="Layer_1" viewBox="0 0 301.22 61.4" width="601" height="361"><defs><style>.cls-1{fill:none}.cls-2{fill:#009ade}</style></defs><path d="M-.08 0h301.22v61.4H-.08z" class="cls-1"/><path d="M36.83 42.61c-2.87 2.75-5.7 4.57-10.17 4.57-6.86 0-12-5.56-12-12.94s5.18-12.86 12-12.86c3.73 0 6.68 1.3 9.89 4.34l.66.63 3.79-4.1-.66-.62a18.23 18.23 0 0 0-13.67-5.56 17.5 17.5 0 0 0-12.77 5.37 18.53 18.53 0 0 0-5 12.89c0 10.36 7.6 18.16 17.68 18.16 7 0 11-3.1 14-6.14l.65-.65-3.76-3.7zm19.68-17.74a13.81 13.81 0 1 0 13.77 13.76 13.69 13.69 0 0 0-13.77-13.76zm8.17 13.86c0 4.93-3.51 8.65-8.17 8.65s-8.22-3.84-8.22-8.75 3.42-8.69 8.13-8.69 8.26 3.86 8.26 8.79zm21.49-13.86a10.1 10.1 0 0 0-7.55 3.05v-2.53h-5.5v26.53h5.5V36.86c0-4 2.67-6.83 6.5-6.83S91 32.42 91 36.58v15.34h5.5V35.67c.04-6.56-4.03-10.8-10.33-10.8zM120.06 44c-2.13 2.28-4.38 3.39-6.89 3.39-4.58 0-8.17-3.84-8.17-8.75s3.49-8.69 7.93-8.69c3.13 0 5.14 1.65 6.85 3.44l.66.7 3.69-3.9-.59-.63A13.58 13.58 0 0 0 113 24.87a13.32 13.32 0 0 0-9.7 4.12 14 14 0 0 0-3.88 9.74 13.83 13.83 0 0 0 3.89 9.68A13.35 13.35 0 0 0 113 52.5a13.67 13.67 0 0 0 10.76-5.08l.6-.67-3.66-3.43zm7.3-18.61h5.5v26.53h-5.5zm0-7.01h5.5v4.63h-5.5zm14.82 11.04v-4h-5.5v26.5h5.5V41.17c0-6.43 3.32-10.42 8.65-10.42H152V25h-.87a10.38 10.38 0 0 0-8.95 4.42zm18.25 0v-4h-5.5v26.5h5.5V41.17c0-6.43 3.32-10.42 8.65-10.42h1.2V25h-.87a10.36 10.36 0 0 0-8.98 4.42zm30.62 11.06c0 4-2.67 6.83-6.49 6.83s-5.93-2.39-5.93-6.55V25.42h-5.5v16.25c0 6.56 4.07 10.8 10.38 10.8a9.94 9.94 0 0 0 7.54-3.07V52h5.46V25.42h-5.46zM212 36.07h-.1c-2.89-.88-5.62-1.71-5.62-3.35v-.1c0-1.6 1.56-2.67 3.87-2.67a13.09 13.09 0 0 1 6.82 2.24l.79.51 2.61-4.32-.73-.49a17.77 17.77 0 0 0-9.42-2.89c-5.49 0-9.32 3.28-9.32 8v.1c0 5.34 5.1 6.79 8.84 7.85 3.11.87 5.5 1.68 5.5 3.47v.1c0 1.8-1.69 3-4.21 3a13.58 13.58 0 0 1-8-3l-.75-.56-2.89 4.08.66.54a17.93 17.93 0 0 0 10.8 3.84c5.8 0 9.7-3.35 9.7-8.32V44c-.01-5.36-5.17-6.91-8.55-7.93zm76.29-7.13A13.82 13.82 0 0 0 276.53 25a13.23 13.23 0 0 0 .19-2.25 13.92 13.92 0 0 0-27.83 0 13.14 13.14 0 0 0 .19 2.25 13.84 13.84 0 0 0-11.77 3.9 13.8 13.8 0 0 0 0 19.53 13.85 13.85 0 0 0 19.56 0l15.71-15.7a8.4 8.4 0 0 1 14.33 5.94 8.28 8.28 0 0 1-2.46 5.92 8.43 8.43 0 0 1-11.91 0l-2.75-2.76-3.79 3.86 2.78 2.79a13.84 13.84 0 0 0 23.61-9.78 13.67 13.67 0 0 0-4.1-9.76zm-34-6.15a8.56 8.56 0 1 1 14.69 6l-.39.38L253 44.63a8.38 8.38 0 1 1 0-11.86l2.79 2.8 3.84-3.84-3.12-3.13a8.49 8.49 0 0 1-2.26-5.81z" class="cls-2"/></svg>