<?xml version="1.0" encoding="utf-8"?>
<!-- Generator: Adobe Illustrator 25.1.0, SVG Export Plug-In . SVG Version: 6.00 Build 0)  -->
<svg version="1.1" id="Layer_1" xmlns="http://www.w3.org/2000/svg" xmlns:xlink="http://www.w3.org/1999/xlink" x="0px" y="0px"
	 viewBox="0 0 600 360" style="enable-background:new 0 0 600 360;" xml:space="preserve">
<style type="text/css">
	.st0{fill:#16C2F4;}
	.st1{fill:#181645;}
	.st2{fill:#424242;}
	.st3{fill:#181648;}
	.st4{fill:#FFFFFF;}
</style>
<g>
	<g>
		<g>
			<path class="st0" d="M173.9,34.1c-0.6-1.5-1.4-2.8-2.4-3.9c-1-1.2-2.1-2.1-3.4-2.9c-1.3-0.8-2.6-1.4-4.1-1.8
				c-1.5-0.4-3-0.6-4.5-0.6c-2.2,0-4.3,0.4-6.3,1.3c-1.9,0.8-3.6,2-5.1,3.5c-1.5,1.5-2.6,3.2-3.5,5.2c-0.8,2-1.3,4.2-1.3,6.5
				c0,2.3,0.4,4.5,1.3,6.5c0.8,2,2,3.7,3.5,5.2c1.5,1.5,3.2,2.6,5.1,3.5c1.9,0.8,4,1.3,6.3,1.3c1.5,0,3-0.2,4.5-0.6
				c1.5-0.4,2.8-1,4.1-1.8c1.3-0.8,2.4-1.8,3.4-2.9c1-1.2,1.8-2.5,2.4-3.9h8.5c-0.7,2.6-1.9,5-3.5,7c-1.6,2-3.4,3.7-5.5,5.1
				c-2.1,1.4-4.3,2.4-6.7,3.2c-2.4,0.7-4.8,1.1-7.2,1.1c-2.2,0-4.4-0.3-6.5-0.8c-2.1-0.5-4-1.3-5.8-2.4c-1.8-1-3.4-2.2-4.9-3.7
				s-2.8-3-3.8-4.7c-1-1.7-1.9-3.6-2.4-5.6c-0.6-2-0.9-4.1-0.9-6.3c0-2.2,0.3-4.3,0.9-6.3c0.6-2,1.4-3.9,2.4-5.6
				c1-1.7,2.3-3.3,3.8-4.7s3.1-2.6,4.9-3.6c1.8-1,3.7-1.8,5.8-2.3c2.1-0.6,4.2-0.8,6.5-0.8c2.4,0,4.8,0.3,7.2,1
				c2.4,0.7,4.6,1.7,6.7,3.1c2.1,1.4,3.9,3.1,5.5,5.2c1.6,2.1,2.7,4.5,3.5,7.2L173.9,34.1z"/>
			<path class="st0" d="M189.4,46.6c0-2.5,0.5-4.8,1.4-7c0.9-2.2,2.2-4.1,3.9-5.7c1.7-1.6,3.6-2.9,5.9-3.9c2.3-0.9,4.8-1.4,7.5-1.4
				c2.7,0,5.2,0.5,7.5,1.4c2.3,0.9,4.3,2.2,5.9,3.9c1.7,1.6,3,3.5,3.9,5.7c0.9,2.2,1.4,4.5,1.4,7c0,2.5-0.5,4.9-1.4,7
				c-0.9,2.2-2.2,4.1-3.9,5.7c-1.7,1.6-3.7,2.9-6,3.8c-2.3,0.9-4.8,1.4-7.6,1.4c-2.7,0-5.2-0.5-7.5-1.4c-2.3-0.9-4.2-2.2-5.9-3.8
				c-1.7-1.6-2.9-3.5-3.9-5.7C189.9,51.5,189.4,49.1,189.4,46.6z M197.4,46.6c0,1.6,0.3,3.1,0.8,4.5c0.6,1.4,1.3,2.5,2.3,3.5
				c1,1,2.1,1.7,3.4,2.3c1.3,0.6,2.7,0.8,4.2,0.8c1.5,0,2.9-0.3,4.2-0.8c1.3-0.5,2.4-1.3,3.4-2.3c1-1,1.7-2.2,2.3-3.5
				c0.6-1.4,0.8-2.9,0.8-4.5c0-1.6-0.3-3.1-0.8-4.4c-0.6-1.4-1.3-2.5-2.3-3.5c-1-1-2.1-1.7-3.4-2.3c-1.3-0.6-2.7-0.8-4.2-0.8
				c-1.5,0-2.9,0.3-4.2,0.8c-1.3,0.5-2.4,1.3-3.4,2.3c-1,1-1.7,2.1-2.3,3.5C197.7,43.5,197.4,45,197.4,46.6z"/>
			<path class="st0" d="M257.7,36.7l-4,0c-1.6,0-3,0.2-4.2,0.7c-1.3,0.5-2.3,1.1-3.2,2c-0.9,0.9-1.6,2-2,3.3
				c-0.5,1.3-0.7,2.9-0.7,4.6v16.3h-8v-34h6.5l0.7,4.1c1.1-1.2,2.6-2.1,4.3-2.9c1.8-0.8,3.8-1.2,6.2-1.2h4.4V36.7z"/>
			<path class="st0" d="M262.8,46.6c0-2.5,0.5-4.8,1.4-7c0.9-2.2,2.2-4.1,3.9-5.7c1.7-1.6,3.6-2.9,5.9-3.9c2.3-0.9,4.8-1.4,7.5-1.4
				c2.7,0,5.2,0.5,7.5,1.4c2.3,0.9,4.3,2.2,5.9,3.9c1.7,1.6,3,3.5,3.9,5.7c0.9,2.2,1.4,4.5,1.4,7c0,0.6,0,1-0.1,1.3
				c0,0.3-0.1,0.6-0.1,1h-29.4c0.3,1.4,0.7,2.6,1.4,3.8c0.7,1.1,1.5,2.1,2.5,2.9c1,0.8,2.1,1.4,3.3,1.8c1.2,0.4,2.4,0.6,3.7,0.6
				c2,0,3.7-0.4,5.3-1.3c1.5-0.9,2.7-2,3.5-3.5h8.7c-0.6,1.5-1.4,2.9-2.4,4.3c-1.1,1.4-2.3,2.6-3.8,3.6c-1.5,1.1-3.2,1.9-5.1,2.5
				c-1.9,0.6-3.9,0.9-6.2,0.9c-2.7,0-5.2-0.5-7.5-1.4c-2.3-0.9-4.3-2.2-5.9-3.9c-1.7-1.6-3-3.5-3.9-5.7
				C263.2,51.5,262.8,49.1,262.8,46.6z M281.5,35.1c-1.4,0-2.6,0.2-3.8,0.6c-1.2,0.4-2.2,1-3.1,1.7c-0.9,0.7-1.7,1.6-2.3,2.6
				c-0.6,1-1.1,2.1-1.4,3.3h20.9c-0.3-1.2-0.8-2.3-1.4-3.3c-0.6-1-1.4-1.9-2.2-2.6c-0.9-0.7-1.9-1.3-3-1.7
				C284.1,35.3,282.9,35.1,281.5,35.1z"/>
			<path class="st1" d="M341,18.7h8.7l-18.9,45h-7.5l-18.9-45h8.7l13.9,34h0.1L341,18.7z"/>
			<path class="st1" d="M349.4,46.6c0-2.5,0.4-4.8,1.3-7c0.9-2.2,2.1-4.1,3.7-5.7c1.6-1.6,3.5-2.9,5.7-3.9s4.7-1.4,7.4-1.4
				c1.3,0,2.5,0.1,3.6,0.4c1.2,0.3,2.2,0.6,3.3,1c1,0.4,1.9,0.9,2.8,1.5c0.8,0.6,1.6,1.2,2.3,1.8l0.5-3.7h6.9v34H380l-0.5-3.7
				c-0.7,0.7-1.5,1.3-2.3,1.8c-0.9,0.6-1.8,1.1-2.8,1.5c-1,0.4-2.1,0.8-3.2,1c-1.2,0.3-2.4,0.4-3.6,0.4c-2.7,0-5.2-0.5-7.4-1.4
				c-2.2-0.9-4.1-2.2-5.7-3.8c-1.6-1.6-2.8-3.5-3.7-5.7C349.8,51.5,349.4,49.1,349.4,46.6z M357.4,46.6c0,1.6,0.3,3.1,0.9,4.5
				c0.6,1.4,1.4,2.5,2.3,3.5c1,1,2.1,1.7,3.5,2.3c1.3,0.5,2.7,0.8,4.3,0.8c1.5,0,2.9-0.3,4.2-0.8c1.3-0.5,2.5-1.3,3.5-2.3
				c1-1,1.8-2.1,2.3-3.5c0.6-1.4,0.9-2.9,0.9-4.5c0-1.6-0.3-3.1-0.9-4.4c-0.6-1.4-1.4-2.5-2.3-3.5c-1-1-2.1-1.7-3.5-2.3
				c-1.3-0.6-2.7-0.8-4.3-0.8c-1.5,0-2.9,0.3-4.3,0.8c-1.3,0.5-2.5,1.3-3.5,2.3c-1,1-1.8,2.1-2.3,3.5
				C357.7,43.5,357.4,45,357.4,46.6z"/>
			<path class="st1" d="M397.8,17.1h8v46.5h-8V17.1z"/>
			<path class="st1" d="M432.3,57.7c1.4,0,2.7-0.2,3.7-0.6c1.1-0.4,2-1,2.8-1.8c0.8-0.8,1.3-1.9,1.7-3.2c0.4-1.3,0.6-2.9,0.6-4.7
				V29.6h8.1v18c0,3-0.4,5.6-1.2,7.7c-0.8,2.1-2,3.9-3.5,5.3c-1.5,1.4-3.3,2.4-5.4,3c-2.1,0.6-4.3,1-6.8,1c-2.5,0-4.8-0.3-6.8-1
				c-2.1-0.6-3.9-1.6-5.3-3c-1.5-1.4-2.7-3.1-3.5-5.3c-0.8-2.1-1.2-4.7-1.2-7.7v-18h8.1v17.8c0,1.8,0.2,3.4,0.6,4.7
				c0.4,1.3,1,2.3,1.7,3.2c0.7,0.8,1.7,1.4,2.8,1.8C429.7,57.5,430.9,57.7,432.3,57.7z"/>
			<path class="st1" d="M456.8,46.6c0-2.5,0.5-4.8,1.4-7c0.9-2.2,2.2-4.1,3.9-5.7c1.7-1.6,3.6-2.9,5.9-3.9c2.3-0.9,4.8-1.4,7.5-1.4
				c2.7,0,5.2,0.5,7.5,1.4c2.3,0.9,4.3,2.2,5.9,3.9c1.7,1.6,3,3.5,3.9,5.7c0.9,2.2,1.4,4.5,1.4,7c0,0.6,0,1-0.1,1.3
				c0,0.3-0.1,0.6-0.1,1h-29.4c0.3,1.4,0.7,2.6,1.4,3.8c0.7,1.1,1.5,2.1,2.5,2.9c1,0.8,2.1,1.4,3.3,1.8c1.2,0.4,2.4,0.6,3.7,0.6
				c2,0,3.7-0.4,5.3-1.3c1.5-0.9,2.7-2,3.5-3.5h8.7c-0.6,1.5-1.4,2.9-2.4,4.3c-1.1,1.4-2.3,2.6-3.8,3.6c-1.5,1.1-3.2,1.9-5.1,2.5
				c-1.9,0.6-3.9,0.9-6.2,0.9c-2.7,0-5.2-0.5-7.5-1.4c-2.3-0.9-4.3-2.2-5.9-3.9c-1.7-1.6-3-3.5-3.9-5.7
				C457.3,51.5,456.8,49.1,456.8,46.6z M475.6,35.1c-1.4,0-2.6,0.2-3.8,0.6c-1.2,0.4-2.2,1-3.1,1.7c-0.9,0.7-1.7,1.6-2.3,2.6
				c-0.6,1-1.1,2.1-1.4,3.3h20.9c-0.3-1.2-0.8-2.3-1.4-3.3c-0.6-1-1.4-1.9-2.2-2.6c-0.9-0.7-1.9-1.3-3-1.7
				C478.1,35.3,476.9,35.1,475.6,35.1z"/>
		</g>
		<g>
			<path class="st2" d="M147.2,83.5h-5.2v-1.2h11.9v1.2h-5.2v14.6h-1.4V83.5z"/>
			<path class="st2" d="M170.9,92.2c0-0.9,0.2-1.7,0.5-2.4c0.3-0.8,0.8-1.4,1.3-2c0.6-0.6,1.2-1,2-1.3c0.8-0.3,1.6-0.5,2.5-0.5
				c0.9,0,1.7,0.2,2.5,0.5c0.8,0.3,1.4,0.8,2,1.3c0.6,0.6,1,1.2,1.3,2c0.3,0.8,0.5,1.6,0.5,2.4c0,0.1,0,0.2,0,0.2c0,0.1,0,0.1,0,0.2
				h-11.3c0.1,0.7,0.2,1.3,0.5,1.9c0.3,0.6,0.7,1.1,1.1,1.4c0.5,0.4,1,0.7,1.6,0.9c0.6,0.2,1.2,0.3,1.8,0.3c0.5,0,0.9-0.1,1.3-0.2
				c0.4-0.1,0.8-0.3,1.2-0.5c0.4-0.2,0.7-0.5,1-0.8c0.3-0.3,0.6-0.6,0.8-1h1.4c-0.2,0.5-0.5,1-0.9,1.4c-0.4,0.4-0.8,0.8-1.3,1.1
				c-0.5,0.3-1,0.6-1.6,0.8s-1.2,0.3-1.9,0.3c-0.9,0-1.7-0.2-2.5-0.5c-0.8-0.3-1.4-0.8-2-1.3c-0.6-0.6-1-1.2-1.3-2
				C171.1,93.9,170.9,93,170.9,92.2z M177.3,87.1c-0.7,0-1.3,0.1-1.9,0.3c-0.6,0.2-1.1,0.5-1.5,0.9c-0.4,0.4-0.8,0.9-1.1,1.4
				c-0.3,0.5-0.5,1.1-0.5,1.8h10c-0.1-0.6-0.2-1.2-0.5-1.8c-0.3-0.5-0.6-1-1.1-1.4c-0.4-0.4-0.9-0.7-1.5-0.9
				C178.5,87.3,177.9,87.1,177.3,87.1z"/>
			<path class="st2" d="M205,92.2c0,0.8,0.1,1.5,0.4,2.1c0.3,0.6,0.6,1.1,1.1,1.6c0.5,0.4,1,0.8,1.6,1c0.6,0.2,1.2,0.3,1.9,0.3
				c0.5,0,0.9-0.1,1.4-0.2c0.4-0.1,0.8-0.3,1.2-0.5c0.4-0.2,0.7-0.5,1-0.8c0.3-0.3,0.6-0.7,0.8-1.1h1.4c-0.2,0.6-0.5,1.1-0.9,1.5
				c-0.4,0.5-0.8,0.9-1.3,1.2c-0.5,0.3-1.1,0.6-1.7,0.8c-0.6,0.2-1.3,0.3-1.9,0.3c-0.9,0-1.7-0.2-2.5-0.5c-0.8-0.3-1.4-0.8-2-1.3
				c-0.6-0.6-1-1.2-1.3-2c-0.3-0.8-0.5-1.6-0.5-2.4c0-0.9,0.2-1.7,0.5-2.4c0.3-0.8,0.8-1.4,1.3-2c0.6-0.6,1.2-1,2-1.3
				c0.8-0.3,1.6-0.5,2.5-0.5c0.7,0,1.3,0.1,1.9,0.3c0.6,0.2,1.2,0.4,1.7,0.8s0.9,0.7,1.3,1.2c0.4,0.5,0.7,1,0.9,1.5h-1.4
				c-0.2-0.4-0.5-0.8-0.8-1.1c-0.3-0.3-0.7-0.6-1-0.8c-0.4-0.2-0.8-0.4-1.2-0.5c-0.4-0.1-0.9-0.2-1.4-0.2c-0.7,0-1.3,0.1-1.9,0.4
				c-0.6,0.2-1.1,0.6-1.6,1c-0.5,0.4-0.8,1-1.1,1.6C205.2,90.7,205,91.4,205,92.2z"/>
			<path class="st2" d="M248,98.1h-1.4v-6.5c0-0.8-0.1-1.5-0.3-2c-0.2-0.6-0.4-1-0.8-1.4s-0.8-0.6-1.3-0.8c-0.5-0.2-1.1-0.2-1.8-0.2
				c-0.6,0-1.1,0.1-1.7,0.3c-0.5,0.2-1,0.5-1.4,0.8c-0.4,0.4-0.7,0.8-0.9,1.3c-0.2,0.5-0.3,1.1-0.3,1.8v6.6h-1.3V81.8h1.3l0,6.5
				c0.2-0.3,0.5-0.6,0.8-0.9c0.3-0.3,0.7-0.5,1-0.7c0.4-0.2,0.8-0.4,1.3-0.5c0.5-0.1,0.9-0.2,1.4-0.2c1.8,0,3.1,0.5,4,1.4
				c0.9,0.9,1.3,2.3,1.3,4.2V98.1z"/>
			<path class="st2" d="M280.8,98.1h-1.4v-6.4c0-1.6-0.4-2.7-1.1-3.4c-0.7-0.7-1.7-1.1-3.1-1.1c-0.6,0-1.2,0.1-1.7,0.3
				c-0.5,0.2-1,0.5-1.4,0.9c-0.4,0.4-0.7,0.9-0.9,1.4c-0.2,0.6-0.3,1.2-0.3,1.8v6.3h-1.3V86.3h1.1l0.1,2c0.2-0.3,0.5-0.6,0.8-0.9
				c0.3-0.3,0.7-0.5,1.1-0.7c0.4-0.2,0.8-0.4,1.3-0.5c0.5-0.1,0.9-0.2,1.4-0.2c1.8,0,3.1,0.5,4,1.4c0.9,0.9,1.3,2.3,1.3,4.3V98.1z"
				/>
			<path class="st2" d="M301.2,92.2c0-0.9,0.2-1.7,0.5-2.4c0.3-0.8,0.8-1.4,1.3-2c0.6-0.6,1.2-1,2-1.3c0.8-0.3,1.6-0.5,2.5-0.5
				c0.9,0,1.7,0.2,2.5,0.5c0.8,0.3,1.4,0.8,2,1.3c0.6,0.6,1,1.2,1.3,2c0.3,0.8,0.5,1.6,0.5,2.4c0,0.9-0.2,1.7-0.5,2.4
				c-0.3,0.8-0.8,1.4-1.3,2c-0.6,0.6-1.2,1-2,1.3c-0.8,0.3-1.6,0.5-2.5,0.5c-0.9,0-1.7-0.2-2.5-0.5c-0.8-0.3-1.4-0.8-2-1.3
				c-0.6-0.6-1-1.2-1.3-2C301.4,93.9,301.2,93.1,301.2,92.2z M302.6,92.2c0,0.7,0.1,1.4,0.4,2c0.3,0.6,0.6,1.1,1.1,1.6
				c0.5,0.4,1,0.8,1.6,1c0.6,0.3,1.3,0.4,2,0.4c0.7,0,1.3-0.1,2-0.4c0.6-0.3,1.1-0.6,1.6-1c0.5-0.4,0.8-1,1.1-1.6
				c0.3-0.6,0.4-1.3,0.4-2c0-0.7-0.1-1.4-0.4-2c-0.3-0.6-0.6-1.1-1.1-1.6c-0.5-0.4-1-0.8-1.6-1c-0.6-0.3-1.3-0.4-2-0.4
				c-0.7,0-1.3,0.1-2,0.4c-0.6,0.3-1.1,0.6-1.6,1c-0.5,0.4-0.8,1-1.1,1.6C302.7,90.8,302.6,91.5,302.6,92.2z"/>
			<path class="st2" d="M334.9,81.8h1.3v16.3h-1.3V81.8z"/>
			<path class="st2" d="M357.3,92.2c0-0.9,0.2-1.7,0.5-2.4c0.3-0.8,0.8-1.4,1.3-2c0.6-0.6,1.2-1,2-1.3c0.8-0.3,1.6-0.5,2.5-0.5
				c0.9,0,1.7,0.2,2.5,0.5c0.8,0.3,1.4,0.8,2,1.3c0.6,0.6,1,1.2,1.3,2c0.3,0.8,0.5,1.6,0.5,2.4c0,0.9-0.2,1.7-0.5,2.4
				c-0.3,0.8-0.8,1.4-1.3,2c-0.6,0.6-1.2,1-2,1.3c-0.8,0.3-1.6,0.5-2.5,0.5c-0.9,0-1.7-0.2-2.5-0.5c-0.8-0.3-1.4-0.8-2-1.3
				c-0.6-0.6-1-1.2-1.3-2C357.4,93.9,357.3,93.1,357.3,92.2z M358.6,92.2c0,0.7,0.1,1.4,0.4,2c0.3,0.6,0.6,1.1,1.1,1.6
				c0.5,0.4,1,0.8,1.6,1c0.6,0.3,1.3,0.4,2,0.4c0.7,0,1.3-0.1,2-0.4c0.6-0.3,1.1-0.6,1.6-1c0.5-0.4,0.8-1,1.1-1.6s0.4-1.3,0.4-2
				c0-0.7-0.1-1.4-0.4-2s-0.6-1.1-1.1-1.6c-0.5-0.4-1-0.8-1.6-1c-0.6-0.3-1.3-0.4-2-0.4c-0.7,0-1.3,0.1-2,0.4
				c-0.6,0.3-1.1,0.6-1.6,1c-0.5,0.4-0.8,1-1.1,1.6C358.7,90.8,358.6,91.5,358.6,92.2z"/>
			<path class="st2" d="M390,92.2c0-0.9,0.2-1.7,0.5-2.4c0.3-0.8,0.8-1.4,1.3-2c0.6-0.6,1.2-1,2-1.3c0.8-0.3,1.6-0.5,2.5-0.5
				c0.6,0,1.1,0.1,1.6,0.2s1,0.3,1.4,0.6c0.4,0.2,0.8,0.5,1.2,0.9c0.4,0.3,0.7,0.7,0.9,1.1l0.1-2.4h1.1v10.2c0,0.5,0,0.9-0.1,1.4
				c-0.1,0.5-0.2,1-0.4,1.4c-0.2,0.5-0.4,0.9-0.7,1.3c-0.3,0.4-0.7,0.8-1.1,1.1c-0.5,0.3-1,0.6-1.6,0.7c-0.6,0.2-1.3,0.3-2.1,0.3
				c-1,0-1.8-0.1-2.5-0.4s-1.3-0.6-1.8-1c-0.5-0.4-0.9-0.9-1.2-1.4c-0.3-0.5-0.5-1-0.6-1.5h1.3c0.1,0.4,0.3,0.8,0.5,1.2
				c0.3,0.4,0.6,0.7,1,1c0.4,0.3,0.9,0.5,1.4,0.7c0.5,0.2,1.2,0.3,1.9,0.3c0.7,0,1.3-0.1,1.8-0.2c0.5-0.2,0.9-0.4,1.3-0.7
				c0.4-0.3,0.6-0.6,0.9-0.9c0.2-0.3,0.4-0.7,0.5-1.1c0.1-0.4,0.2-0.7,0.3-1.1c0-0.4,0.1-0.7,0.1-1v-1.1c-0.3,0.4-0.6,0.7-0.9,1.1
				c-0.4,0.3-0.8,0.6-1.2,0.9c-0.4,0.2-0.9,0.4-1.4,0.6c-0.5,0.1-1.1,0.2-1.6,0.2c-0.9,0-1.7-0.2-2.4-0.5c-0.7-0.3-1.4-0.7-2-1.3
				c-0.6-0.5-1-1.2-1.3-1.9C390.2,93.9,390,93.1,390,92.2z M391.4,92.2c0,0.7,0.1,1.4,0.4,2c0.3,0.6,0.6,1.1,1.1,1.6
				c0.5,0.4,1,0.8,1.6,1c0.6,0.3,1.3,0.4,2,0.4c0.7,0,1.3-0.1,2-0.4c0.6-0.3,1.1-0.6,1.6-1c0.5-0.4,0.8-1,1.1-1.6
				c0.3-0.6,0.4-1.3,0.4-2c0-0.7-0.1-1.4-0.4-2s-0.6-1.1-1.1-1.6c-0.5-0.4-1-0.8-1.6-1c-0.6-0.3-1.3-0.4-2-0.4c-0.7,0-1.3,0.1-2,0.4
				c-0.6,0.3-1.1,0.6-1.6,1c-0.5,0.4-0.8,1-1.1,1.6C391.5,90.8,391.4,91.5,391.4,92.2z"/>
			<path class="st2" d="M424.3,82.7c0-0.3,0.1-0.5,0.3-0.7c0.2-0.2,0.4-0.3,0.7-0.3c0.3,0,0.5,0.1,0.7,0.3c0.2,0.2,0.3,0.4,0.3,0.7
				c0,0.3-0.1,0.5-0.3,0.7c-0.2,0.2-0.4,0.3-0.7,0.3c-0.3,0-0.5-0.1-0.7-0.3C424.4,83.2,424.3,83,424.3,82.7z M424.7,86.3h1.3v11.7
				h-1.3V86.3z"/>
			<path class="st2" d="M447.4,92.2c0-0.9,0.2-1.7,0.5-2.4c0.3-0.8,0.8-1.4,1.3-2c0.6-0.6,1.2-1,2-1.3c0.8-0.3,1.6-0.5,2.5-0.5
				c0.9,0,1.7,0.2,2.5,0.5c0.8,0.3,1.4,0.8,2,1.3c0.6,0.6,1,1.2,1.3,2c0.3,0.8,0.5,1.6,0.5,2.4c0,0.1,0,0.2,0,0.2c0,0.1,0,0.1,0,0.2
				h-11.3c0.1,0.7,0.2,1.3,0.5,1.9c0.3,0.6,0.7,1.1,1.1,1.4c0.5,0.4,1,0.7,1.6,0.9c0.6,0.2,1.2,0.3,1.8,0.3c0.5,0,0.9-0.1,1.4-0.2
				c0.4-0.1,0.8-0.3,1.2-0.5c0.4-0.2,0.7-0.5,1-0.8c0.3-0.3,0.6-0.6,0.8-1h1.4c-0.2,0.5-0.5,1-0.9,1.4c-0.4,0.4-0.8,0.8-1.3,1.1
				c-0.5,0.3-1,0.6-1.6,0.8c-0.6,0.2-1.2,0.3-1.9,0.3c-0.9,0-1.7-0.2-2.5-0.5c-0.8-0.3-1.4-0.8-2-1.3c-0.6-0.6-1-1.2-1.3-2
				C447.5,93.9,447.4,93,447.4,92.2z M453.7,87.1c-0.7,0-1.3,0.1-1.9,0.3c-0.6,0.2-1.1,0.5-1.5,0.9c-0.4,0.4-0.8,0.9-1.1,1.4
				c-0.3,0.5-0.5,1.1-0.5,1.8h10c-0.1-0.6-0.2-1.2-0.5-1.8c-0.3-0.5-0.6-1-1.1-1.4c-0.4-0.4-0.9-0.7-1.5-0.9
				C455,87.3,454.4,87.1,453.7,87.1z"/>
			<path class="st2" d="M481,94.8c0,0.3,0.1,0.6,0.3,0.9c0.2,0.3,0.4,0.6,0.7,0.8c0.3,0.2,0.7,0.4,1.1,0.5c0.4,0.1,0.8,0.2,1.3,0.2
				c1.3,0,2.3-0.2,3-0.6c0.7-0.4,1-1,1-1.7c0-0.4-0.1-0.7-0.3-1s-0.5-0.5-0.8-0.6c-0.3-0.2-0.7-0.3-1.2-0.4c-0.5-0.1-1-0.2-1.6-0.3
				c-0.3,0-0.7-0.1-1-0.1s-0.7-0.1-1-0.2c-0.3-0.1-0.6-0.2-0.9-0.3c-0.3-0.1-0.6-0.3-0.8-0.5c-0.2-0.2-0.4-0.5-0.5-0.8
				c-0.1-0.3-0.2-0.7-0.2-1.1c0-0.4,0.1-0.9,0.2-1.3c0.2-0.4,0.4-0.8,0.8-1.1c0.4-0.3,0.9-0.6,1.5-0.8c0.6-0.2,1.4-0.3,2.2-0.3
				c0.7,0,1.3,0.1,1.8,0.2c0.5,0.2,1,0.4,1.4,0.7c0.4,0.3,0.7,0.6,0.9,1c0.2,0.4,0.3,0.8,0.3,1.3h-1.3c0-0.3-0.1-0.6-0.3-0.9
				c-0.2-0.3-0.4-0.5-0.6-0.7s-0.6-0.3-1-0.4c-0.4-0.1-0.8-0.2-1.2-0.2c-0.6,0-1.1,0.1-1.6,0.2c-0.4,0.1-0.8,0.3-1,0.5
				c-0.3,0.2-0.5,0.5-0.6,0.7c-0.1,0.3-0.2,0.6-0.2,0.8c0,0.3,0.1,0.6,0.2,0.8c0.2,0.2,0.4,0.4,0.7,0.6c0.3,0.2,0.7,0.3,1.2,0.4
				c0.5,0.1,1,0.2,1.6,0.2c0.3,0,0.7,0.1,1,0.1c0.4,0.1,0.7,0.1,1,0.2s0.7,0.2,1,0.4c0.3,0.2,0.6,0.3,0.8,0.6
				c0.2,0.2,0.4,0.5,0.6,0.8c0.1,0.3,0.2,0.7,0.2,1.1c0,0.6-0.1,1.1-0.4,1.5c-0.2,0.4-0.6,0.8-1,1.1c-0.5,0.3-1,0.5-1.7,0.7
				c-0.7,0.2-1.4,0.2-2.3,0.2c-0.7,0-1.4-0.1-1.9-0.3c-0.6-0.2-1.1-0.5-1.5-0.8c-0.4-0.3-0.7-0.7-1-1.2c-0.2-0.4-0.3-0.9-0.3-1.3
				H481z"/>
		</g>
	</g>
	<g>
		<circle class="st3" cx="57.1" cy="58" r="51.4"/>
		<g>
			<g>
				<g>
					<path class="st4" d="M63.3,11.4c-0.3,0-0.5-0.2-0.5-0.5V9.4c0-0.3,0.2-0.5,0.5-0.5c0.3,0,0.5,0.2,0.5,0.5v1.5
						C63.8,11.2,63.6,11.4,63.3,11.4z"/>
					<path class="st4" d="M89,64.5c-0.1,0-0.2,0-0.3-0.1l-2.3-1.7c-0.2-0.2-0.3-0.5-0.1-0.7c0.2-0.2,0.5-0.3,0.7-0.1l2.3,1.7
						c0.2,0.2,0.3,0.5,0.1,0.7C89.3,64.5,89.1,64.5,89,64.5z M84.4,61.2c-0.1,0-0.2,0-0.3-0.1l-2.3-1.7c-0.2-0.2-0.3-0.5-0.1-0.7
						c0.2-0.2,0.5-0.3,0.7-0.1l2.3,1.7c0.2,0.2,0.3,0.5,0.1,0.7C84.7,61.1,84.5,61.2,84.4,61.2z M79.8,57.9c-0.1,0-0.2,0-0.3-0.1
						L78,56.8l-0.6-1.1c-0.1-0.2,0-0.5,0.2-0.7c0.2-0.1,0.5,0,0.7,0.2l0.5,0.9l1.3,0.9c0.2,0.2,0.3,0.5,0.1,0.7
						C80.1,57.8,79.9,57.9,79.8,57.9z M76.5,53.4c-0.2,0-0.3-0.1-0.4-0.3l-1.3-2.5c-0.1-0.2,0-0.5,0.2-0.7c0.2-0.1,0.5,0,0.7,0.2
						l1.3,2.5c0.1,0.2,0,0.5-0.2,0.7C76.7,53.4,76.6,53.4,76.5,53.4z M73.8,48.4c-0.2,0-0.3-0.1-0.4-0.3L72,45.7
						c-0.1-0.2,0-0.5,0.2-0.7c0.2-0.1,0.5,0,0.7,0.2l1.3,2.5c0.1,0.2,0,0.5-0.2,0.7C74,48.4,73.9,48.4,73.8,48.4z M71.1,43.4
						c-0.2,0-0.3-0.1-0.4-0.3l-1.3-2.5c-0.1-0.2,0-0.5,0.2-0.7c0.2-0.1,0.5,0,0.7,0.2l1.3,2.5c0.1,0.2,0,0.5-0.2,0.7
						C71.3,43.4,71.2,43.4,71.1,43.4z M68.4,38.5c-0.2,0-0.3-0.1-0.4-0.3l-1.3-2.5c-0.1-0.2,0-0.5,0.2-0.7c0.2-0.1,0.5,0,0.7,0.2
						l1.3,2.5c0.1,0.2,0,0.5-0.2,0.7C68.6,38.4,68.5,38.5,68.4,38.5z M65.7,33.5c-0.2,0-0.3-0.1-0.4-0.3L64,30.7
						c-0.1-0.2,0-0.5,0.2-0.7c0.2-0.1,0.5,0,0.7,0.2l1.3,2.5c0.1,0.2,0,0.5-0.2,0.7C65.9,33.5,65.8,33.5,65.7,33.5z M63.3,28.4
						c-0.3,0-0.5-0.2-0.5-0.5v-2.8c0-0.3,0.2-0.5,0.5-0.5c0.3,0,0.5,0.2,0.5,0.5v2.8C63.8,28.2,63.6,28.4,63.3,28.4z M63.3,22.7
						c-0.3,0-0.5-0.2-0.5-0.5v-2.8c0-0.3,0.2-0.5,0.5-0.5c0.3,0,0.5,0.2,0.5,0.5v2.8C63.8,22.5,63.6,22.7,63.3,22.7z M63.3,17.1
						c-0.3,0-0.5-0.2-0.5-0.5v-2.8c0-0.3,0.2-0.5,0.5-0.5c0.3,0,0.5,0.2,0.5,0.5v2.8C63.8,16.9,63.6,17.1,63.3,17.1z"/>
					<path class="st4" d="M92.5,67c-0.1,0-0.2,0-0.3-0.1L91,66.1c-0.2-0.2-0.3-0.5-0.1-0.7c0.2-0.2,0.5-0.3,0.7-0.1l1.2,0.9
						c0.2,0.2,0.3,0.5,0.1,0.7C92.8,67,92.6,67,92.5,67z"/>
				</g>
				<g>
					<path class="st4" d="M64,29.3c-0.1,0-0.1,0-0.2,0l-1.4-0.6c-0.3-0.1-0.4-0.4-0.3-0.6c0.1-0.3,0.4-0.4,0.6-0.3l1.4,0.6
						c0.3,0.1,0.4,0.4,0.3,0.6C64.4,29.2,64.2,29.3,64,29.3z"/>
					<path class="st4" d="M78.3,35.3c-0.1,0-0.1,0-0.2,0l-2.4-1c-0.3-0.1-0.4-0.4-0.3-0.6c0.1-0.3,0.4-0.4,0.6-0.3l2.4,1
						c0.3,0.1,0.4,0.4,0.3,0.6C78.7,35.2,78.5,35.3,78.3,35.3z M73.6,33.3c-0.1,0-0.1,0-0.2,0l-2.4-1c-0.3-0.1-0.4-0.4-0.3-0.6
						c0.1-0.3,0.4-0.4,0.6-0.3l2.4,1c0.3,0.1,0.4,0.4,0.3,0.6C73.9,33.2,73.8,33.3,73.6,33.3z M68.8,31.3c-0.1,0-0.1,0-0.2,0l-2.4-1
						c-0.3-0.1-0.4-0.4-0.3-0.6c0.1-0.3,0.4-0.4,0.6-0.3l2.4,1c0.3,0.1,0.4,0.4,0.3,0.6C69.2,31.2,69,31.3,68.8,31.3z"/>
					<path class="st4" d="M82.1,36.9c-0.1,0-0.1,0-0.2,0l-1.4-0.6c-0.3-0.1-0.4-0.4-0.3-0.6c0.1-0.3,0.4-0.4,0.6-0.3l1.4,0.6
						c0.3,0.1,0.4,0.4,0.3,0.6C82.5,36.8,82.3,36.9,82.1,36.9z"/>
				</g>
				<g>
					<path class="st4" d="M64.1,28.8c-0.2,0-0.4-0.2-0.5-0.4c0-0.3,0.1-0.5,0.4-0.6l1.5-0.3c0.3,0,0.5,0.1,0.6,0.4
						c0,0.3-0.1,0.5-0.4,0.6L64.1,28.8C64.2,28.8,64.2,28.8,64.1,28.8z"/>
					<path class="st4" d="M68.8,27.9c-0.2,0-0.4-0.2-0.5-0.4c0-0.3,0.1-0.5,0.4-0.6l3.2-0.6c0.3,0,0.5,0.1,0.6,0.4
						c0,0.3-0.1,0.5-0.4,0.6L68.8,27.9C68.8,27.9,68.8,27.9,68.8,27.9z M75.1,26.8c-0.2,0-0.4-0.2-0.5-0.4c0-0.3,0.1-0.5,0.4-0.6
						l3.2-0.6c0.3,0,0.5,0.1,0.6,0.4c0,0.3-0.1,0.5-0.4,0.6L75.1,26.8C75.2,26.8,75.1,26.8,75.1,26.8z M81.5,25.7
						c-0.2,0-0.4-0.2-0.5-0.4c0-0.3,0.1-0.5,0.4-0.6l3.2-0.6c0.3,0,0.5,0.1,0.6,0.4c0,0.3-0.1,0.5-0.4,0.6L81.5,25.7
						C81.5,25.7,81.5,25.7,81.5,25.7z"/>
					<path class="st4" d="M88.5,25.6c-0.1,0-0.2,0-0.2-0.1c-0.2-0.1-0.3-0.4-0.2-0.7l0.2-0.4l-0.4,0.1c-0.3,0-0.5-0.1-0.6-0.4
						c0-0.3,0.1-0.5,0.4-0.6l2.5-0.4L89,25.3C88.9,25.5,88.7,25.6,88.5,25.6z"/>
					<path class="st4" d="M79.2,52.6C79.2,52.6,79.1,52.6,79.2,52.6c-0.4-0.1-0.5-0.3-0.5-0.6l0.5-2.8c0-0.3,0.3-0.5,0.6-0.4
						c0.3,0,0.4,0.3,0.4,0.6l-0.5,2.8C79.6,52.4,79.4,52.6,79.2,52.6z M80.2,46.9C80.2,46.9,80.2,46.9,80.2,46.9
						c-0.4-0.1-0.5-0.3-0.5-0.6l0.5-2.8c0-0.3,0.3-0.5,0.6-0.4c0.3,0,0.4,0.3,0.4,0.6l-0.5,2.8C80.7,46.7,80.5,46.9,80.2,46.9z
						 M81.3,41.2C81.3,41.2,81.2,41.2,81.3,41.2c-0.4-0.1-0.5-0.3-0.5-0.6l0.5-2.8c0-0.3,0.3-0.4,0.6-0.4c0.3,0,0.4,0.3,0.4,0.6
						l-0.5,2.8C81.7,41,81.5,41.2,81.3,41.2z M82.8,35.7c-0.1,0-0.2,0-0.2-0.1c-0.2-0.1-0.3-0.4-0.2-0.7l1.4-2.5
						c0.1-0.2,0.4-0.3,0.7-0.2c0.2,0.1,0.3,0.4,0.2,0.7l-1.4,2.5C83.1,35.6,83,35.7,82.8,35.7z M85.7,30.6c-0.1,0-0.2,0-0.2-0.1
						c-0.2-0.1-0.3-0.4-0.2-0.7l1.4-2.5c0.1-0.2,0.4-0.3,0.7-0.2c0.2,0.1,0.3,0.4,0.2,0.7l-1.4,2.5C86,30.5,85.8,30.6,85.7,30.6z"/>
					<path class="st4" d="M78.8,57l-1.9-0.2c-0.3,0-0.5-0.3-0.4-0.5c0-0.3,0.3-0.5,0.5-0.4l1,0.1l0.2-1c0-0.3,0.3-0.4,0.6-0.4
						c0.3,0,0.4,0.3,0.4,0.6L78.8,57z"/>
					<path class="st4" d="M74.1,56.5C74.1,56.5,74.1,56.5,74.1,56.5l-2.9-0.3c-0.3,0-0.5-0.3-0.4-0.5c0-0.3,0.3-0.5,0.5-0.4l2.8,0.3
						c0.3,0,0.5,0.3,0.4,0.5C74.6,56.3,74.4,56.5,74.1,56.5z M68.5,55.9C68.5,55.9,68.5,55.9,68.5,55.9l-2.9-0.3
						c-0.3,0-0.5-0.3-0.4-0.5c0-0.3,0.3-0.5,0.5-0.4l2.8,0.3c0.3,0,0.5,0.3,0.4,0.5C69,55.7,68.8,55.9,68.5,55.9z M62.9,55.4
						C62.9,55.4,62.9,55.4,62.9,55.4l-2.9-0.3c-0.3,0-0.5-0.3-0.4-0.5s0.3-0.5,0.5-0.4l2.8,0.3c0.3,0,0.5,0.3,0.4,0.5
						C63.4,55.2,63.2,55.4,62.9,55.4z M57.3,54.8C57.3,54.8,57.3,54.8,57.3,54.8l-2.9-0.3c-0.3,0-0.5-0.3-0.4-0.5s0.3-0.5,0.5-0.4
						l2.8,0.3c0.3,0,0.5,0.3,0.4,0.5C57.8,54.6,57.6,54.8,57.3,54.8z M51.7,54.2C51.7,54.2,51.7,54.2,51.7,54.2L48.9,54
						c-0.3,0-0.5-0.3-0.4-0.5c0-0.3,0.3-0.5,0.5-0.4l2.8,0.3c0.3,0,0.5,0.3,0.4,0.5C52.2,54,52,54.2,51.7,54.2z M46.1,53.7
						C46.1,53.7,46.1,53.7,46.1,53.7l-2.9-0.3c-0.3,0-0.5-0.3-0.4-0.5s0.3-0.5,0.5-0.4l2.8,0.3c0.3,0,0.5,0.3,0.4,0.5
						C46.6,53.5,46.4,53.7,46.1,53.7z"/>
					<path class="st4" d="M40.5,53.1C40.5,53.1,40.5,53.1,40.5,53.1l-2.6-0.3l1.8-1.8c0.2-0.2,0.5-0.2,0.7,0c0.2,0.2,0.2,0.5,0,0.7
						l-0.3,0.3l0.4,0c0.3,0,0.5,0.3,0.4,0.5C41,52.9,40.8,53.1,40.5,53.1z"/>
					<path class="st4" d="M42.1,49.9c-0.1,0-0.3,0-0.4-0.1c-0.2-0.2-0.2-0.5,0-0.7l2-2c0.2-0.2,0.5-0.2,0.7,0c0.2,0.2,0.2,0.5,0,0.7
						l-2,2C42.4,49.9,42.2,49.9,42.1,49.9z M46.1,46c-0.1,0-0.3,0-0.4-0.1c-0.2-0.2-0.2-0.5,0-0.7l2-2c0.2-0.2,0.5-0.2,0.7,0
						c0.2,0.2,0.2,0.5,0,0.7l-2,2C46.4,45.9,46.3,46,46.1,46z M50.2,42c-0.1,0-0.3,0-0.4-0.1c-0.2-0.2-0.2-0.5,0-0.7l2-2
						c0.2-0.2,0.5-0.2,0.7,0c0.2,0.2,0.2,0.5,0,0.7l-2,2C50.4,41.9,50.3,42,50.2,42z M54.2,38c-0.1,0-0.3,0-0.4-0.1
						c-0.2-0.2-0.2-0.5,0-0.7l2-2c0.2-0.2,0.5-0.2,0.7,0c0.2,0.2,0.2,0.5,0,0.7l-2,2C54.5,38,54.3,38,54.2,38z M58.2,34
						c-0.1,0-0.3,0-0.4-0.1c-0.2-0.2-0.2-0.5,0-0.7l2-2c0.2-0.2,0.5-0.2,0.7,0c0.2,0.2,0.2,0.5,0,0.7l-2,2C58.5,34,58.4,34,58.2,34z
						"/>
					<path class="st4" d="M62.3,30c-0.1,0-0.3,0-0.4-0.1c-0.2-0.2-0.2-0.5,0-0.7l0.5-0.5l-0.6-0.2c-0.3-0.1-0.4-0.4-0.3-0.6
						c0.1-0.3,0.4-0.4,0.6-0.3l2.2,0.7l-1.6,1.6C62.5,30,62.4,30,62.3,30z"/>
					<path class="st4" d="M59.1,27.5c-0.1,0-0.1,0-0.2,0l-2.8-1c-0.3-0.1-0.4-0.4-0.3-0.6c0.1-0.3,0.4-0.4,0.6-0.3l2.8,1
						c0.3,0.1,0.4,0.4,0.3,0.6C59.5,27.4,59.3,27.5,59.1,27.5z M53.5,25.6c-0.1,0-0.1,0-0.2,0c-1-0.3-1.9-0.7-2.8-1
						c-0.3-0.1-0.4-0.4-0.3-0.6c0.1-0.3,0.4-0.4,0.6-0.3c0.9,0.3,1.8,0.7,2.8,1c0.3,0.1,0.4,0.4,0.3,0.6
						C53.9,25.5,53.7,25.6,53.5,25.6z"/>
					<path class="st4" d="M47.9,23.6c-0.1,0-0.1,0-0.2,0c-1.5-0.6-1.5-0.6-1.6-0.8c-0.1-0.2-0.1-0.5,0.2-0.7c0.2-0.1,0.4-0.1,0.6,0
						c0.1,0,0.3,0.2,1.2,0.5c0.3,0.1,0.4,0.4,0.3,0.6C48.3,23.4,48.1,23.6,47.9,23.6z"/>
				</g>
				<g>
					<path class="st4" d="M83.5,37.3c0,0-0.1,0-0.1,0L82,36.9c-0.3-0.1-0.4-0.4-0.3-0.6c0.1-0.3,0.4-0.4,0.6-0.3l1.4,0.4
						c0.3,0.1,0.4,0.4,0.3,0.6C83.9,37.2,83.7,37.3,83.5,37.3z"/>
					<path class="st4" d="M92.7,40.2c0,0-0.1,0-0.1,0l-2.3-0.7c-0.3-0.1-0.4-0.4-0.3-0.6c0.1-0.3,0.4-0.4,0.6-0.3l2.3,0.7
						c0.3,0.1,0.4,0.4,0.3,0.6C93.1,40.1,92.9,40.2,92.7,40.2z M88.1,38.8c0,0-0.1,0-0.1,0L85.7,38c-0.3-0.1-0.4-0.4-0.3-0.6
						c0.1-0.3,0.4-0.4,0.6-0.3l2.3,0.7c0.3,0.1,0.4,0.4,0.3,0.6C88.5,38.6,88.3,38.8,88.1,38.8z"/>
					<path class="st4" d="M96.4,41.4c0,0-0.1,0-0.1,0l-1.4-0.4c-0.3-0.1-0.4-0.4-0.3-0.6c0.1-0.3,0.4-0.4,0.6-0.3l1.4,0.4
						c0.3,0.1,0.4,0.4,0.3,0.6C96.8,41.2,96.6,41.4,96.4,41.4z"/>
				</g>
			</g>
			<circle class="st0" cx="79.5" cy="15.3" r="1.2"/>
			<circle class="st0" cx="57.7" cy="50.5" r="1.2"/>
			<circle class="st0" cx="76" cy="37" r="1.2"/>
			<circle class="st0" cx="51.5" cy="29.7" r="1.4"/>
			<circle class="st0" cx="59.9" cy="64.6" r="1.4"/>
			<g>
				<circle class="st1" cx="63.8" cy="29" r="2.2"/>
				<path class="st0" d="M63.8,31.7c-1.5,0-2.7-1.2-2.7-2.7c0-1.5,1.2-2.7,2.7-2.7c1.5,0,2.7,1.2,2.7,2.7
					C66.5,30.5,65.3,31.7,63.8,31.7z M63.8,27.3c-1,0-1.7,0.8-1.7,1.7c0,1,0.8,1.7,1.7,1.7s1.7-0.8,1.7-1.7
					C65.6,28,64.8,27.3,63.8,27.3z"/>
			</g>
			<g>
				<circle class="st1" cx="82.1" cy="36.4" r="1.7"/>
				<path class="st0" d="M82.1,38.6c-1.2,0-2.2-1-2.2-2.2c0-1.2,1-2.2,2.2-2.2c1.2,0,2.2,1,2.2,2.2C84.3,37.6,83.3,38.6,82.1,38.6z
					 M82.1,35.2c-0.7,0-1.2,0.6-1.2,1.2s0.6,1.2,1.2,1.2s1.2-0.6,1.2-1.2S82.8,35.2,82.1,35.2z"/>
			</g>
			<g>
				<circle class="st4" cx="93.5" cy="67.5" r="1.2"/>
				<path class="st0" d="M93.5,69.3c-1,0-1.7-0.8-1.7-1.7s0.8-1.7,1.7-1.7s1.7,0.8,1.7,1.7S94.4,69.3,93.5,69.3z M93.5,66.8
					c-0.4,0-0.7,0.3-0.7,0.7c0,0.4,0.3,0.7,0.7,0.7c0.4,0,0.7-0.3,0.7-0.7C94.2,67.1,93.9,66.8,93.5,66.8z"/>
			</g>
			<g>
				<circle class="st1" cx="89.3" cy="23.8" r="2"/>
				<path class="st0" d="M89.3,26.5c-1.5,0-2.7-1.2-2.7-2.7c0-1.5,1.2-2.7,2.7-2.7c1.5,0,2.7,1.2,2.7,2.7
					C92,25.3,90.8,26.5,89.3,26.5z M89.3,22.6c-0.7,0-1.2,0.6-1.2,1.2c0,0.7,0.6,1.2,1.2,1.2s1.2-0.6,1.2-1.2
					C90.5,23.1,89.9,22.6,89.3,22.6z"/>
			</g>
			<path class="st4" d="M80.4,55.7c-0.2,0-0.5-0.2-0.5-0.4c0-0.3,0.1-0.5,0.4-0.6l2.9-0.4c0.3,0,0.5,0.1,0.6,0.4
				c0,0.3-0.1,0.5-0.4,0.6L80.4,55.7C80.4,55.7,80.4,55.7,80.4,55.7z M86.2,54.9c-0.2,0-0.5-0.2-0.5-0.4c0-0.3,0.1-0.5,0.4-0.6
				l2.9-0.4c0.3,0,0.5,0.1,0.6,0.4c0,0.3-0.1,0.5-0.4,0.6L86.2,54.9C86.3,54.9,86.3,54.9,86.2,54.9z M92.1,54
				c-0.2,0-0.5-0.2-0.5-0.4c0-0.3,0.1-0.5,0.4-0.6l2.9-0.4c0.3,0,0.5,0.1,0.6,0.4c0,0.3-0.1,0.5-0.4,0.6L92.1,54
				C92.2,54,92.1,54,92.1,54z M98,53.1c-0.2,0-0.5-0.2-0.5-0.4c0-0.3,0.1-0.5,0.4-0.6l1.2-0.2c0.3,0,0.5,0.1,0.6,0.4
				c0,0.3-0.1,0.5-0.4,0.6L98,53.1C98,53.1,98,53.1,98,53.1z"/>
			<g>
				<circle class="st1" cx="95.4" cy="40.9" r="1.2"/>
				<path class="st0" d="M95.4,42.6c-1,0-1.7-0.8-1.7-1.7s0.8-1.7,1.7-1.7c1,0,1.7,0.8,1.7,1.7S96.4,42.6,95.4,42.6z M95.4,40.1
					c-0.4,0-0.7,0.3-0.7,0.7s0.3,0.7,0.7,0.7c0.4,0,0.7-0.3,0.7-0.7S95.8,40.1,95.4,40.1z"/>
			</g>
			<g>
				<circle class="st1" cx="99.1" cy="52.5" r="2"/>
				<path class="st0" d="M99.1,55.2c-1.5,0-2.7-1.2-2.7-2.7c0-1.5,1.2-2.7,2.7-2.7c1.5,0,2.7,1.2,2.7,2.7
					C101.9,54,100.6,55.2,99.1,55.2z M99.1,51.2c-0.7,0-1.2,0.6-1.2,1.2s0.6,1.2,1.2,1.2c0.7,0,1.2-0.6,1.2-1.2S99.8,51.2,99.1,51.2
					z"/>
			</g>
			<g>
				<circle class="st1" cx="78.4" cy="56.4" r="3"/>
				<path class="st0" d="M78.4,60.4c-2.2,0-4-1.8-4-4c0-2.2,1.8-4,4-4c2.2,0,4,1.8,4,4C82.3,58.6,80.6,60.4,78.4,60.4z M78.4,54.4
					c-1.1,0-2,0.9-2,2c0,1.1,0.9,2,2,2c1.1,0,2-0.9,2-2C80.4,55.3,79.5,54.4,78.4,54.4z"/>
			</g>
		</g>
		<path class="st0" d="M84.2,101.7c-7.9,4.9-17.1,7.7-27.1,7.7c-21.7,0-40.2-13.4-47.8-32.3C7,71.2,5.7,64.7,5.7,58
			c0-28.4,23-51.4,51.4-51.4c2.5,0,4.9,0.2,7.3,0.5c3,0.4,5.9,1.1,8.7,2c2.6,0.8,5.1,1.9,7.5,3.1c-2.1,0-4.6,0.2-7.3,0.6
			c-2.9,0.4-6.1,1-9.3,1.9c-12.1,3.5-24.7,11.9-25.1,31.4c-0.1,2.9,0.3,5.8,0.9,8.7c0.5,2.1,0.6,6.2-1.9,12.2
			c-0.3,0.7-0.6,1.4-1,2.2c-5.4,10.7,6.9,3.5,6.5,8.1c-0.3,3.6-1.4,8,2.1,8.7c0.3,0.1,0.4,0.4,0.3,0.6c-0.4,1-1.2,3.2,0.3,4.1
			c1.9,1.1,4.2,1.5,4.2,4.2c0,2.7,1.5,7.3,11.5,4.6c10-2.7,18.5-8.3,21.7,0.8C83.6,100.8,83.9,101.3,84.2,101.7z"/>
	</g>
</g>
</svg>
